# File created by Blade
# Date/Time:  Tue Apr 07 20:45:22 2015
# Frame Rate: 120.000 fps
#------------------------------------------------------
:FULLY-SPECIFIED
:DEGREES
435
root 2.143139 33.950672 -5.271092 11.551192 -17.414549 -44.570641
Spine 8.590494 27.297967 31.546688
Head -0.177171 -7.607998 14.653619
LeftShoulder -23.484110 36.159256 20.649097
LeftArm 69.421842 -68.316480 -88.803625
LeftForeArm 8.245624 -0.000000 9.760223
LeftHand 6.376303 -0.000000 9.932049
LeftHandThumb1 -26.253704 0.000000 33.147579
RightShoulder -11.101461 32.385835 -32.531778
RightArm 68.434160 78.060661 103.780889
RightForeArm 42.096905 -0.000000 59.331890
RightHand 0.642264 -0.000000 28.501183
RightHandThumb1 -24.326973 -0.000000 -32.862282
LeftUpLeg -6.787194 -11.062971 39.055254
LeftLeg 26.057165 -0.000000 -0.000000
LeftFoot -20.264098 26.301385 -13.401901
LeftToeBase -7.406740 -0.000000 0.000000
RightUpLeg -134.649796 -50.965471 17.374931
RightLeg -7.919815 -0.000000 0.000000
RightFoot 40.231535 -20.049691 10.697484
RightToeBase 10.281651 -0.000000 -0.000000
436
root 2.111743 33.916547 -5.219929 11.429296 -17.676128 -44.583520
Spine 8.573856 27.374877 31.402656
Head 0.090333 -7.540083 15.101562
LeftShoulder -23.373826 35.931320 21.149461
LeftArm 69.334446 -68.987310 -87.892458
LeftForeArm 7.931896 0.000000 9.544609
LeftHand 6.298023 -0.000000 10.559609
LeftHandThumb1 -26.253704 0.000000 33.147579
RightShoulder -11.151859 32.372797 -32.446174
RightArm 69.178582 78.013531 104.572679
RightForeArm 42.104556 -0.000000 59.096844
RightHand 0.643988 0.000000 28.518703
RightHandThumb1 -24.326973 -0.000000 -32.862282
LeftUpLeg -6.523500 -11.382228 38.893588
LeftLeg 26.351501 -0.000000 -0.000000
LeftFoot -20.278657 26.800390 -13.228937
LeftToeBase -8.057364 -0.000000 0.000000
RightUpLeg -134.711394 -50.848622 17.394393
RightLeg -7.803899 -0.000000 0.000000
RightFoot 40.246905 -20.134273 10.817850
RightToeBase 10.478005 -0.000000 -0.000000
437
root 2.075288 33.889226 -5.170863 11.291325 -17.974033 -44.685198
Spine 8.651146 27.477054 31.394015
Head 0.361214 -7.455847 15.471508
LeftShoulder -23.185011 35.668194 21.713562
LeftArm 69.869850 -69.882463 -87.804065
LeftForeArm 8.192666 -0.000000 9.475643
LeftHand 6.480911 -0.000000 10.173689
LeftHandThumb1 -26.253704 0.000000 33.147579
RightShoulder -11.275517 32.267316 -32.463558
RightArm 70.179752 77.902504 105.721914
RightForeArm 42.075636 -0.000000 58.896544
RightHand 0.611500 -0.000000 28.622725
RightHandThumb1 -24.326973 -0.000000 -32.862282
LeftUpLeg -6.202991 -11.575097 38.821130
LeftLeg 26.602103 -0.000000 -0.000000
LeftFoot -19.918542 27.447307 -12.581742
LeftToeBase -8.066659 -0.000000 0.000000
RightUpLeg -134.666247 -50.697240 17.404169
RightLeg -7.688336 -0.000000 0.000000
RightFoot 40.111959 -20.271858 11.098218
RightToeBase 10.867198 -0.000000 -0.000000
438
root 2.039976 33.865956 -5.115746 11.200882 -18.293644 -44.783688
Spine 8.636939 27.601046 31.338501
Head 0.722236 -7.320101 15.858768
LeftShoulder -22.980348 35.382670 22.307029
LeftArm 69.716377 -70.649577 -86.967582
LeftForeArm 7.987098 -0.000000 9.429628
LeftHand 6.574806 -0.000000 10.761554
LeftHandThumb1 -26.253704 0.000000 33.147579
RightShoulder -11.310884 32.135027 -32.394484
RightArm 70.807122 77.815732 106.432228
RightForeArm 42.176078 -0.000000 58.708257
RightHand 0.695093 -0.000000 28.473562
RightHandThumb1 -24.326973 -0.000000 -32.862282
LeftUpLeg -5.896912 -11.705971 38.747388
LeftLeg 26.844973 -0.000000 -0.000000
LeftFoot -19.609134 27.960960 -12.225389
LeftToeBase -8.781943 -0.000000 0.000000
RightUpLeg -134.684629 -50.528295 17.450133
RightLeg -7.609221 -0.000000 0.000000
RightFoot 40.129593 -20.444358 11.329617
RightToeBase 10.468412 -0.000000 -0.000000
439
root 2.002194 33.847833 -5.057167 11.130980 -18.631023 -44.897286
Spine 8.603357 27.770519 31.280390
Head 1.066023 -7.245416 16.270388
LeftShoulder -22.811555 35.155953 22.872339
LeftArm 69.952338 -71.416969 -86.517486
LeftForeArm 7.623737 0.000000 9.511244
LeftHand 6.927018 -0.000000 10.196415
LeftHandThumb1 -26.253704 0.000000 33.147579
RightShoulder -11.374168 32.070717 -32.340919
RightArm 70.927235 77.732821 106.607798
RightForeArm 42.373689 -0.000000 58.524372
RightHand 0.660111 -0.000000 28.486874
RightHandThumb1 -24.326973 -0.000000 -32.862282
LeftUpLeg -5.584601 -11.768918 38.680735
LeftLeg 27.082882 -0.000000 -0.000000
LeftFoot -19.124209 28.431031 -11.710545
LeftToeBase -9.766195 -0.000000 0.000000
RightUpLeg -134.713963 -50.348025 17.479862
RightLeg -7.517655 -0.000000 0.000000
RightFoot 40.200890 -20.560348 11.292265
RightToeBase 10.622242 -0.000000 -0.000000
440
root 1.964443 33.835730 -5.000774 11.091730 -18.945993 -45.011262
Spine 8.522209 27.918156 31.217857
Head 1.455642 -7.174968 16.639235
LeftShoulder -22.661778 34.916414 23.393488
LeftArm 70.402890 -72.180696 -86.263783
LeftForeArm 7.539648 -0.000000 9.664621
LeftHand 7.060678 -0.000000 10.448400
LeftHandThumb1 -26.253704 0.000000 33.147579
RightShoulder -11.383186 31.997000 -32.278348
RightArm 70.942890 77.681028 106.658936
RightForeArm 42.469754 -0.000000 58.385105
RightHand 0.658039 0.000000 28.490338
RightHandThumb1 -24.326973 -0.000000 -32.862282
LeftUpLeg -5.343656 -11.778347 38.624260
LeftLeg 27.358328 -0.000000 -0.000000
LeftFoot -18.616148 28.880925 -11.208273
LeftToeBase -10.559994 -0.000000 0.000000
RightUpLeg -134.740948 -50.220167 17.485829
RightLeg -7.445852 -0.000000 0.000000
RightFoot 40.206117 -20.631761 11.346041
RightToeBase 10.514822 -0.000000 -0.000000
441
root 1.925634 33.829376 -4.945544 11.068220 -19.225692 -45.151312
Spine 8.421172 28.022854 31.187675
Head 1.856682 -7.108422 16.958573
LeftShoulder -22.420489 34.521206 23.971919
LeftArm 70.650712 -73.020670 -85.858581
LeftForeArm 7.762907 -0.000000 9.885042
LeftHand 7.003237 -0.000000 10.987035
LeftHandThumb1 -26.253704 0.000000 33.147579
RightShoulder -11.377097 31.869394 -32.237316
RightArm 71.298263 77.612252 107.067662
RightForeArm 42.468339 -0.000000 58.310967
RightHand 0.662817 -0.000000 28.479690
RightHandThumb1 -24.326973 -0.000000 -32.862282
LeftUpLeg -5.145235 -11.901447 38.599067
LeftLeg 27.688808 -0.000000 -0.000000
LeftFoot -18.393216 29.254977 -11.209598
LeftToeBase -10.645416 -0.000000 0.000000
RightUpLeg -134.749690 -50.159249 17.479771
RightLeg -7.404578 -0.000000 0.000000
RightFoot 40.166384 -20.719717 11.451568
RightToeBase 10.545908 -0.000000 -0.000000
